<?xml version="1.0" standalone="no"?>
<!DOCTYPE svg PUBLIC "-//W3C//DTD SVG 20010904//EN"
 "http://www.w3.org/TR/2001/REC-SVG-20010904/DTD/svg10.dtd">
<svg version="1.0" xmlns="http://www.w3.org/2000/svg"
 width="579.000000pt" height="629.000000pt" viewBox="0 0 579.000000 629.000000"
 preserveAspectRatio="xMidYMid meet">

<g transform="translate(0.000000,629.000000) scale(0.100000,-0.100000)"
fill="#000000" stroke="none">
<path d="M3018 5915 c-3 -4 -53 -9 -110 -12 -57 -2 -119 -9 -138 -13 -19 -5
-52 -13 -73 -19 -100 -25 -332 -222 -396 -336 -15 -27 -47 -83 -70 -124 -24
-40 -49 -94 -56 -120 -19 -62 -12 -311 10 -405 9 -39 20 -111 25 -160 5 -50
12 -107 15 -126 3 -19 6 -42 5 -50 0 -23 -19 -202 -24 -229 -8 -46 33 -266 63
-342 16 -40 32 -101 34 -134 3 -33 9 -103 12 -155 4 -52 11 -100 16 -105 4 -6
8 -20 8 -30 -1 -55 47 -187 91 -250 17 -24 30 -48 30 -53 0 -6 7 -13 16 -16 9
-4 15 -9 12 -12 -3 -2 13 -24 34 -47 22 -23 46 -51 53 -62 18 -26 35 -206 24
-254 -5 -20 -9 -50 -9 -68 0 -32 61 -161 103 -215 31 -40 146 -180 162 -197
11 -11 25 -5 87 41 108 81 173 123 383 248 263 157 388 243 471 325 86 84 92
102 129 357 25 169 44 270 66 356 11 39 14 42 47 42 28 0 42 8 76 44 83 90
114 132 149 201 40 80 82 261 71 308 -10 46 -59 150 -77 166 -19 15 -23 47 -6
53 10 3 1 54 -19 108 -3 8 -7 31 -9 50 -1 19 -3 42 -4 50 -1 8 -1 36 -1 62 2
35 5 46 15 42 11 -4 14 6 12 43 -1 26 1 53 5 58 13 19 33 147 24 154 -8 5 -38
81 -48 116 -1 6 -6 21 -10 34 -5 15 -4 26 4 31 9 6 5 19 -17 51 -16 24 -35 58
-43 74 -8 17 -19 35 -23 40 -95 122 -121 152 -140 160 -14 7 -23 20 -24 39 -2
30 -18 46 -73 72 -64 30 -120 69 -120 83 0 11 -4 10 -19 -3 -11 -10 -25 -15
-32 -11 -8 6 -5 13 11 25 23 17 22 18 -29 7 -43 -8 -59 -7 -87 6 -19 9 -34 21
-34 26 0 5 -20 3 -45 -5 -40 -12 -45 -11 -45 3 0 9 -3 13 -7 9 -4 -3 -20 7
-37 22 -37 35 -94 56 -111 42 -12 -10 -172 -6 -270 6 -27 3 -53 3 -57 -1z"/>
<path d="M4020 2981 c0 -6 7 -28 15 -49 22 -50 12 -99 -35 -169 -48 -74 -102
-125 -215 -203 -106 -74 -314 -256 -352 -308 -15 -21 -83 -94 -152 -164 -69
-70 -122 -130 -119 -133 3 -3 17 -1 32 5 24 9 26 8 16 -9 -5 -11 -69 -102
-142 -203 -163 -226 -239 -337 -308 -451 -29 -48 -54 -86 -56 -84 -2 2 24 81
56 177 49 144 63 200 79 316 15 117 24 152 51 205 41 80 60 109 60 89 1 -12 4
-11 14 3 8 10 30 20 49 24 l35 5 -34 75 c-18 41 -55 110 -81 154 -43 73 -49
79 -80 79 -23 0 -33 5 -33 15 0 19 2 19 -73 -5 -116 -39 -113 -36 -176 -144
-81 -139 -89 -177 -30 -146 16 9 19 7 19 -10 0 -24 8 -25 31 -4 16 15 17 13
12 -28 -3 -24 -14 -54 -23 -68 -9 -14 -25 -50 -35 -80 -26 -82 -95 -237 -133
-299 -18 -31 -65 -135 -104 -233 -39 -98 -77 -186 -84 -195 -12 -16 -13 -14
-14 17 0 55 19 208 35 285 8 39 22 114 31 168 11 65 28 122 51 170 39 82 84
206 103 287 7 30 29 96 48 145 32 82 36 103 43 240 4 83 11 186 14 229 l7 80
-38 -33 c-48 -43 -313 -170 -464 -223 -176 -62 -556 -178 -581 -178 -37 0
-110 -37 -175 -88 -77 -60 -170 -207 -219 -344 -9 -26 -28 -59 -44 -75 -63
-65 -102 -123 -96 -142 4 -14 0 -23 -15 -31 -11 -6 -32 -37 -47 -68 -30 -67
-190 -435 -206 -473 -6 -15 -23 -34 -39 -44 -16 -9 -35 -27 -43 -39 -13 -19
-57 -166 -78 -256 -4 -14 -29 -47 -57 -74 -68 -65 -83 -97 -82 -171 0 -35 -5
-66 -13 -75 -24 -28 -196 -300 -220 -347 -13 -27 -27 -60 -30 -76 l-7 -27
2630 0 2629 0 36 128 c20 70 46 165 57 211 12 47 44 146 72 220 27 75 63 192
78 261 16 69 43 171 59 227 38 126 51 209 51 334 0 154 -42 260 -149 373 -185
197 -239 240 -400 323 -47 25 -126 75 -176 112 -160 120 -328 238 -414 290
-78 47 -88 57 -151 153 -38 57 -94 154 -125 215 -31 63 -65 118 -77 124 -31
17 -188 25 -188 10z"/>
</g>
</svg>
