<?xml version="1.0" standalone="no"?>
<!DOCTYPE svg PUBLIC "-//W3C//DTD SVG 20010904//EN"
 "http://www.w3.org/TR/2001/REC-SVG-20010904/DTD/svg10.dtd">
<svg version="1.0" xmlns="http://www.w3.org/2000/svg"
 width="549.000000pt" height="567.000000pt" viewBox="0 0 549.000000 567.000000"
 preserveAspectRatio="xMidYMid meet">

<g transform="translate(0.000000,567.000000) scale(0.100000,-0.100000)"
fill="#000000" stroke="none">
<path d="M2625 5559 c-95 -9 -163 -19 -230 -35 -93 -22 -332 -230 -397 -344
-121 -215 -121 -216 -127 -335 -4 -63 -1 -150 6 -205 25 -204 34 -268 49 -351
11 -59 13 -92 6 -105 -5 -11 -12 -68 -16 -129 -9 -144 12 -307 52 -407 23 -56
32 -102 41 -203 12 -135 46 -332 60 -350 5 -5 11 -21 14 -35 6 -23 82 -158 96
-170 3 -3 30 -33 58 -67 l53 -61 11 -100 c8 -74 8 -115 -1 -155 -6 -30 -8 -68
-4 -83 8 -38 68 -146 111 -203 74 -96 156 -191 166 -191 6 0 42 24 81 53 102
77 135 98 391 252 373 223 505 329 540 435 9 28 29 135 45 238 35 229 55 338
69 375 9 23 16 27 47 27 38 0 53 12 145 122 75 89 150 290 149 400 -1 40 -52
163 -81 194 -17 18 -19 26 -10 43 9 16 8 35 -5 83 -20 73 -25 225 -8 236 6 4
14 36 17 72 3 36 11 86 18 110 11 41 10 52 -10 105 -38 104 -49 143 -40 152 9
9 -78 160 -122 211 -16 18 -29 36 -29 41 0 5 -20 28 -45 52 -25 24 -45 51 -45
61 0 20 -46 56 -111 87 -26 12 -59 33 -73 46 -14 13 -28 19 -31 14 -4 -5 -16
-9 -28 -9 -20 1 -21 2 -4 14 27 21 20 25 -23 15 -41 -9 -99 6 -114 29 -4 7
-19 7 -45 0 -38 -10 -42 -8 -77 25 -43 40 -108 64 -128 47 -8 -5 -20 -8 -27
-6 -31 10 -300 13 -394 5z"/>
<path d="M3720 2633 c1 -5 7 -19 15 -33 22 -39 18 -95 -11 -153 -33 -65 -137
-168 -231 -230 -77 -51 -343 -282 -343 -298 0 -6 -63 -74 -140 -153 -77 -79
-140 -146 -140 -151 0 -4 11 -4 25 -1 33 8 32 -2 -8 -55 -32 -42 -233 -320
-290 -401 -15 -22 -64 -98 -108 -169 -45 -72 -83 -129 -85 -126 -2 2 16 58 41
125 57 155 80 247 99 393 12 96 21 129 51 188 19 40 43 75 53 78 9 4 23 13 30
20 7 7 27 13 43 13 16 0 29 4 29 8 0 13 -102 211 -133 260 -22 34 -33 42 -57
42 -16 0 -33 7 -38 16 -8 15 -17 14 -88 -10 -44 -14 -84 -30 -89 -34 -13 -9
-84 -121 -114 -179 -29 -57 -28 -77 3 -69 18 4 28 1 35 -11 7 -14 12 -15 24
-5 13 11 15 8 13 -25 -1 -22 -11 -54 -23 -73 -12 -19 -33 -71 -48 -115 -34
-99 -87 -216 -125 -275 -15 -25 -61 -126 -100 -225 -40 -99 -76 -184 -81 -189
-11 -12 -11 129 0 199 5 28 16 91 25 140 10 50 24 125 32 168 8 43 29 107 48
145 32 63 96 248 111 321 4 18 21 65 37 105 28 66 31 87 44 276 7 113 13 218
13 234 l1 30 -32 -31 c-45 -41 -429 -220 -533 -247 -33 -9 -148 -45 -256 -80
-108 -35 -218 -68 -245 -72 -94 -13 -198 -82 -270 -177 -52 -70 -109 -178
-130 -247 -9 -29 -37 -71 -79 -120 -46 -54 -65 -83 -65 -103 0 -16 -7 -30 -16
-34 -17 -6 -64 -101 -149 -303 -97 -231 -115 -267 -142 -281 -48 -26 -59 -50
-110 -254 -13 -48 -26 -71 -68 -115 -68 -71 -85 -106 -85 -175 0 -46 -5 -64
-30 -100 -16 -24 -30 -51 -30 -59 0 -15 242 -16 2573 -16 l2574 0 11 51 c7 28
32 101 56 164 25 62 54 155 66 206 12 52 43 168 68 259 46 165 46 165 47 330
0 228 -3 236 -190 450 -92 107 -207 197 -332 260 -48 25 -131 77 -183 116 -52
39 -124 90 -159 115 -193 135 -251 174 -296 200 -27 15 -62 45 -77 66 -46 64
-134 213 -185 313 -37 72 -54 96 -73 101 -35 10 -180 11 -180 2z"/>
</g>
</svg>
