<?xml version="1.0" standalone="no"?>
<!DOCTYPE svg PUBLIC "-//W3C//DTD SVG 20010904//EN"
 "http://www.w3.org/TR/2001/REC-SVG-20010904/DTD/svg10.dtd">
<svg version="1.0" xmlns="http://www.w3.org/2000/svg"
 width="831.000000pt" height="903.000000pt" viewBox="0 0 831.000000 903.000000"
 preserveAspectRatio="xMidYMid meet">

<g transform="translate(0.000000,903.000000) scale(0.100000,-0.100000)"
fill="#000000" stroke="none">
<path d="M4075 8778 c-195 -19 -251 -33 -325 -81 -87 -57 -110 -77 -197 -166
-82 -83 -103 -113 -192 -285 l-46 -89 1 -161 c0 -115 6 -182 18 -236 36 -155
47 -365 27 -525 -11 -96 18 -291 58 -383 20 -47 31 -93 36 -152 23 -273 37
-342 89 -456 31 -66 72 -127 155 -226 34 -41 40 -56 45 -110 10 -94 10 -147 2
-213 -8 -58 -7 -63 34 -140 40 -75 114 -175 202 -272 l38 -42 62 48 c98 74
198 139 388 251 244 144 404 254 480 330 79 79 92 115 120 327 11 82 26 177
34 213 8 36 22 100 32 142 16 72 19 77 39 72 32 -8 79 19 112 63 15 21 43 55
61 77 19 21 49 71 68 110 39 82 78 254 68 300 -10 46 -58 149 -77 165 -19 15
-23 47 -6 53 10 3 0 63 -18 108 -4 8 -7 33 -9 55 -1 22 -3 45 -4 50 -1 6 -2
31 -1 58 1 33 5 47 15 47 10 0 13 12 11 45 -2 25 1 47 6 51 5 3 9 17 9 31 0
14 5 43 12 64 8 29 8 45 0 62 -16 32 -43 99 -47 117 -2 8 -6 27 -10 43 -5 17
-3 27 4 27 6 0 0 17 -14 38 -13 20 -32 53 -42 72 -20 41 -149 207 -166 213 -6
2 -16 19 -22 38 -9 26 -24 40 -64 61 -105 55 -131 72 -131 85 0 11 -4 11 -23
-1 -13 -9 -28 -12 -36 -7 -11 7 -9 10 8 16 38 12 22 23 -20 14 -46 -11 -104 3
-112 25 -4 11 -14 11 -47 3 -34 -9 -43 -9 -50 3 -6 8 -10 11 -10 5 0 -5 -13 5
-29 22 -32 35 -97 59 -117 42 -7 -5 -23 -8 -36 -5 -48 10 -296 13 -383 4z"/>
<path d="M5170 5854 c0 -4 7 -28 16 -51 21 -53 9 -101 -42 -178 -44 -67 -91
-111 -201 -187 -120 -83 -310 -253 -377 -336 -29 -37 -78 -90 -107 -118 -30
-29 -76 -75 -104 -104 l-50 -53 33 7 34 6 -19 -30 c-10 -16 -88 -125 -173
-242 -85 -117 -193 -275 -239 -350 -47 -76 -86 -136 -88 -134 -2 1 17 60 42
130 56 158 80 254 95 376 6 52 16 111 22 130 15 51 81 167 86 152 3 -10 7 -9
16 4 7 9 29 19 50 23 l37 6 -41 85 c-23 47 -60 115 -83 153 -35 56 -46 67 -69
67 -15 0 -31 7 -36 16 -8 15 -18 13 -97 -12 -83 -28 -89 -31 -119 -79 -99
-154 -128 -233 -77 -205 27 14 28 13 34 -12 6 -21 7 -21 26 -4 19 17 19 17 14
-26 -4 -24 -16 -59 -29 -78 -12 -19 -28 -55 -34 -80 -14 -53 -16 -58 -70 -175
-22 -49 -53 -110 -69 -135 -15 -25 -61 -127 -101 -227 -40 -101 -77 -183 -82
-183 -16 0 -2 164 27 305 7 39 21 115 31 170 11 70 28 124 54 180 21 44 55
134 75 200 20 66 52 163 72 215 31 85 36 110 43 245 5 83 12 186 15 229 l7 79
-41 -34 c-22 -19 -91 -57 -153 -86 -231 -106 -314 -141 -358 -153 -25 -6 -135
-41 -245 -76 -110 -36 -234 -72 -275 -80 -136 -26 -261 -133 -346 -298 -20
-39 -43 -92 -50 -117 -9 -30 -39 -76 -84 -130 -43 -51 -69 -91 -66 -101 2 -9
-5 -25 -17 -35 -11 -10 -31 -43 -45 -73 -59 -130 -115 -260 -143 -328 -46
-114 -76 -167 -103 -186 -14 -9 -32 -27 -41 -39 -16 -25 -75 -221 -75 -251 0
-10 -24 -43 -54 -72 -70 -67 -89 -104 -88 -174 0 -48 -5 -63 -42 -120 -209
-321 -222 -346 -232 -453 -5 -48 -20 -91 -69 -192 -34 -71 -77 -169 -95 -218
-18 -48 -54 -121 -81 -163 -26 -42 -51 -94 -55 -117 -3 -23 -19 -81 -35 -130
-23 -72 -29 -109 -31 -200 -7 -365 26 -601 97 -697 30 -41 61 -60 275 -175
246 -132 635 -377 649 -409 10 -24 85 -95 111 -106 35 -14 35 -18 14 -68 -23
-55 -28 -158 -11 -215 11 -34 13 -57 6 -80 -5 -17 -9 -38 -9 -44 0 -10 385
-13 1918 -13 l1919 0 6 213 c3 116 11 255 16 307 6 52 15 144 21 204 6 60 18
128 26 150 33 88 66 224 71 292 4 57 -1 94 -25 196 -17 69 -42 151 -56 182
-60 136 -55 172 34 234 78 56 110 103 117 178 5 53 16 76 118 239 260 416 288
484 431 1035 15 58 47 156 71 219 25 63 58 173 74 245 16 72 43 174 60 228 53
172 65 374 29 489 -27 88 -66 146 -183 272 -117 126 -195 187 -330 258 -55 28
-127 72 -161 98 -159 120 -412 295 -491 340 -48 27 -129 146 -222 327 -35 67
-70 127 -78 134 -17 14 -195 27 -195 14z m-2672 -3510 c12 -4 22 -13 22 -21 0
-11 -9 -12 -37 -8 -53 9 -63 13 -63 25 0 11 42 13 78 4z m-103 -14 c8 -13 -37
-30 -81 -30 -36 0 -49 25 -16 32 41 9 91 8 97 -2z m-125 -23 c0 -6 -20 -24
-45 -40 -38 -22 -47 -24 -51 -12 -8 21 12 43 50 54 43 13 46 13 46 -2z m-100
-5 c0 -5 -16 -16 -35 -25 -34 -16 -35 -16 -35 2 0 14 9 21 28 24 15 2 30 5 35
6 4 0 7 -3 7 -7z m-103 -55 c-17 -14 -82 -196 -73 -204 4 -4 12 -1 18 5 19 19
30 14 18 -8 -6 -11 -14 -19 -18 -16 -4 2 -22 -24 -40 -58 -18 -35 -45 -74 -60
-88 -26 -24 -28 -24 -44 -7 -17 18 -16 20 16 50 57 52 84 100 101 179 29 138
47 189 70 192 24 4 33 -28 12 -45z m88 -9 c14 -6 25 -16 25 -21 0 -23 -54
-128 -64 -124 -49 19 -56 18 -66 -5 -9 -20 -10 -18 -6 12 5 47 27 122 39 138
12 15 38 15 72 0z m66 -233 c-16 -25 -42 -84 -57 -132 -27 -81 -29 -84 -32
-49 -5 55 25 134 71 183 22 24 41 43 43 43 2 0 -9 -20 -25 -45z m-320 -191
c-9 -28 -9 -29 -10 -3 -1 14 2 29 6 32 11 12 13 2 4 -29z m1078 -1077 c25 -13
52 -22 59 -19 16 5 15 -14 -3 -74 -8 -27 -22 -105 -31 -174 -16 -123 -32 -170
-58 -170 -24 0 -36 26 -51 111 -21 119 -19 213 6 287 11 34 23 62 26 62 3 0
26 -10 52 -23z"/>
</g>
</svg>
